# xmcd
#
# Track frame offsets: 
#        150
#        18464
#        37597
#        57045
#        74839
#        95842
#        116083
#        136385
#        157980
#        178172
#        196391
#
# Disc length: 2955 seconds
#
# Revision: 3
# Processed by: cddbd v1.5.2PL0 Copyright (c) Steve Scherf et al.
# Submitted via: ExactAudioCopyFreeDBPlugin 1.0
#
DISCID=990b890b
DTITLE=Various Artist - Yes!プリキュア５gogo! ボーカルアルバム２ SWITCH ON!～そして、世界は拡が
DTITLE=っていく～
DYEAR=2008
DGENRE=precure
TTITLE0=ぷりきゅあ５ - プリキュア５、フル・スロットル　GO GO
TTITLE1=秋元こまち＆水無月かれん - コドモノ時間
TTITLE2=宮本佳那子 - スマイル！
TTITLE3=五條真由美 - sound ～いつまでも　これからも～
TTITLE4=甘井シロー - シロップのドロップ
TTITLE5=キュア・カルテット - プリキュアモードにSWITCH　ON!
TTITLE6=工藤真由 - たとえどんなに離れていても
TTITLE7=うちやえゆか - 希望のかけら
TTITLE8=秋元こまち＆水無月かれん - そして、世界は拡がっていく
TTITLE9=キュア・カルテット - ガンバランスdeダンス～希望のリレー～
TTITLE10=ぷりきゅあ５plusくるみ - 明日、花咲く。笑顔、咲く。
EXTD=YEAR: 2008
EXTT0=
EXTT1=
EXTT2=
EXTT3=
EXTT4=
EXTT5=
EXTT6=
EXTT7=
EXTT8=
EXTT9=
EXTT10=
PLAYORDER=
